<svg xmlns="http://www.w3.org/2000/svg" viewBox="0 0 24 24" width="24" height="24">
  <!-- Chatwork official logo: 4 petal flower shape -->
  <!-- Top-left petal (red) -->
  <path d="M11.2 3.5C11.2 3.5 7.5 5.5 7.5 9.2C7.5 11 8.8 12 10.2 12C10.2 12 11.2 12 11.2 11V3.5Z" fill="#C4161C"/>
  <!-- Top-right petal (dark navy) -->
  <path d="M12.8 3.5C12.8 3.5 16.5 5.5 16.5 9.2C16.5 11 15.2 12 13.8 12C13.8 12 12.8 12 12.8 11V3.5Z" fill="#283040"/>
  <!-- Bottom-left petal (dark navy) -->
  <path d="M11.2 20.5C11.2 20.5 7.5 18.5 7.5 14.8C7.5 13 8.8 12 10.2 12C10.2 12 11.2 12 11.2 13V20.5Z" fill="#283040"/>
  <!-- Bottom-right petal (red) -->
  <path d="M12.8 20.5C12.8 20.5 16.5 18.5 16.5 14.8C16.5 13 15.2 12 13.8 12C13.8 12 12.8 12 12.8 13V20.5Z" fill="#C4161C"/>
</svg>
