<svg xmlns="http://www.w3.org/2000/svg" viewBox="0 0 24 24" width="24" height="24">
  <path d="M6.527 14.514A1.636 1.636 0 014.89 16.15a1.636 1.636 0 01-1.636-1.636 1.636 1.636 0 011.636-1.636h1.636v1.636zm.818 0a1.636 1.636 0 011.636-1.636 1.636 1.636 0 011.636 1.636v4.09a1.636 1.636 0 01-1.636 1.637 1.636 1.636 0 01-1.636-1.636v-4.091z" fill="#E01E5A"/>
  <path d="M8.981 6.527A1.636 1.636 0 017.345 4.89a1.636 1.636 0 011.636-1.636 1.636 1.636 0 011.636 1.636v1.636H8.981zm0 .818a1.636 1.636 0 011.636 1.636 1.636 1.636 0 01-1.636 1.636H4.89a1.636 1.636 0 01-1.636-1.636A1.636 1.636 0 014.89 7.345h4.091z" fill="#36C5F0"/>
  <path d="M16.968 8.981a1.636 1.636 0 011.636-1.636 1.636 1.636 0 011.636 1.636 1.636 1.636 0 01-1.636 1.636h-1.636V8.981zm-.818 0a1.636 1.636 0 01-1.636 1.636 1.636 1.636 0 01-1.636-1.636V4.89a1.636 1.636 0 011.636-1.636 1.636 1.636 0 011.636 1.636v4.091z" fill="#2EB67D"/>
  <path d="M14.514 16.968a1.636 1.636 0 011.636 1.636 1.636 1.636 0 01-1.636 1.636 1.636 1.636 0 01-1.636-1.636v-1.636h1.636zm0-.818a1.636 1.636 0 01-1.636-1.636 1.636 1.636 0 011.636-1.636h4.09a1.636 1.636 0 011.637 1.636 1.636 1.636 0 01-1.636 1.636h-4.091z" fill="#ECB22E"/>
</svg>
